# xmcd
#
# Track frame offsets:
#	150
#	12575
#	31375
#
# Disc length: 633 seconds
#
# Revision: 0
# Processed by: cddbd v1.5.1PL2 Copyright (c) Steve Scherf et al.
# Submitted via: dBpowerAMP V4.0
#
DISCID=1d027703
DTITLE=Jill Johnson - Heartbreak Hotel CDS
DYEAR=2006
DGENRE=Country
TTITLE0=Heartbreak Hotel
TTITLE1=Love Hurts
TTITLE2=Redneck Woman
EXTD=
EXTT0=
EXTT1=
EXTT2=
PLAYORDER=
